<?xml version="1.0" encoding="UTF-8"?>
<svg id="Layer_1" data-name="Layer 1" xmlns="http://www.w3.org/2000/svg" width="1168.48" height="795.64" xmlns:xlink="http://www.w3.org/1999/xlink" viewBox="0 0 1168.48 795.64">
  <defs>
    <style>
      .cls-1 {
        fill: url(#linear-gradient);
      }

      .cls-1, .cls-2, .cls-3, .cls-4 {
        stroke-width: 0px;
      }

      .cls-5 {
        letter-spacing: -.01em;
      }

      .cls-2 {
        fill: url(#linear-gradient-2);
      }

      .cls-3 {
        fill: url(#linear-gradient-3);
      }

      .cls-6 {
        fill: #231f20;
        font-size: 141.91px;
      }

      .cls-6, .cls-7 {
        font-family: HelveticaRounded-Bold, 'Helvetica Rounded';
        font-weight: 700;
      }

      .cls-4 {
        fill: url(#linear-gradient-4);
      }

      .cls-7 {
        fill: #f7941d;
        font-size: 40.24px;
      }
    </style>
    <linearGradient id="linear-gradient" x1=".04" y1="240.46" x2="105.92" y2="240.46" gradientUnits="userSpaceOnUse">
      <stop offset="0" stop-color="#f15a29"/>
      <stop offset="1" stop-color="#fbb040"/>
    </linearGradient>
    <linearGradient id="linear-gradient-2" x1="45.37" y1="100.44" x2="280.86" y2="100.44" xlink:href="#linear-gradient"/>
    <linearGradient id="linear-gradient-3" x1="120.56" y1="268.47" x2="274.83" y2="268.47" gradientUnits="userSpaceOnUse">
      <stop offset="0" stop-color="#006838"/>
      <stop offset="1" stop-color="#8dc63f"/>
    </linearGradient>
    <linearGradient id="linear-gradient-4" x1="0" y1="118.46" x2="175.97" y2="118.46" xlink:href="#linear-gradient"/>
  </defs>
  <g id="Landscape">
    <g>
      <path class="cls-1" d="M.04,273.58c0-33.6,0-67.2,0-100.8,0-3.42,1.84-5,5.25-4.4,10.17,1.8,18.7,6.32,24.74,14.96,3.07,4.39,4.85,9.29,5.58,14.54.28,2.03,1.12,2.82,3.11,2.82,11.26-.03,22.53,0,33.79-.02,1.63,0,3.05-.16,2.78-2.52-1.2-10.47-3.54-20.58-8.81-29.86-6.36-11.21-15.1-20.11-26.12-26.66-10.77-6.41-22.52-9.76-35.08-10.22-3.83-.14-5.24-1.65-5.24-5.44,0-6.49,0-12.98,0-19.47,0-3.53,1.22-4.96,4.84-4.65,6.36.54,12.77,1.03,19.01,2.28,24,4.83,43.63,17.21,59.48,35.64,8.29,9.64,14.16,20.76,18.09,32.81,2.72,8.36,3.88,17.07,4.46,25.84.14,2.18-.94,3.19-3.04,3.2-2.77.01-5.54,0-8.3-.01q-5.59-.02-5.59,5.43c0,15.27,0,30.55,0,45.82,0,20.81.03,41.62,0,62.43-.03,17.14-5.67,32.19-17.67,44.48-6.47,6.63-14.14,11.6-23.01,14.87-12.55,4.62-25.5,4.58-38.52,4.44-1.81-.02-3.63.03-5.44-.01-2.87-.06-4.28-1.5-4.28-4.4,0-18.9,0-37.8,0-56.7,0-14.8,0-29.59,0-44.39Z"/>
      <path class="cls-2" d="M45.37.71c1.84-.21,3.68-.61,5.51-.61,34.75-.03,69.5-.23,104.24.06,22.86.2,45.24,3.58,66.46,12.74,21.24,9.16,37.84,23.54,48.68,44.04,6.24,11.82,9.69,24.64,10.3,38.05.34,7.51.42,15.07,0,22.57-1.04,18.37-7.41,34.89-18.3,49.66-10.91,14.8-25.28,25.21-41.93,32.68-3.86,1.73-4.41,1.39-4.82-2.68-.98-9.67-1.69-19.38-3.07-29-.89-6.18-2.48-12.31-4.29-18.3-2.44-8.06-5.17-16.06-8.21-23.91-4.44-11.47-10.34-22.24-17.1-32.51-15.73-23.92-35.78-43.54-59.53-59.45-15.06-10.09-31.19-18.06-48.35-23.8-9.29-3.11-18.83-5.49-28.25-8.2-.44-.13-.86-.34-1.28-.51-.02-.27-.04-.55-.06-.82Z"/>
      <path class="cls-3" d="M225.04,309.28c-15.28,0-30.55-.05-45.83.05-2.89.02-4.8-.98-6.41-3.36-13.37-19.79-26.82-39.52-40.24-59.28-3.67-5.4-7.33-10.8-10.96-16.22-.44-.66-.7-1.45-1.05-2.18.86-.26,1.72-.75,2.59-.76,14.32-.09,28.64-.11,42.96-.16,15.94-.05,31.89,0,47.83-.22,3.29-.05,5.3,1.15,7.09,3.72,9.48,13.62,19.06,27.17,28.62,40.74,8.07,11.45,16.16,22.89,24.2,34.37.55.79.66,1.88.98,2.83-1.03.32-2.07.91-3.1.92-15.56.06-31.12.04-46.69.04,0-.16,0-.33,0-.49Z"/>
      <path class="cls-4" d="M160.85,201.62c-3.34,0-6.68,0-10.03,0-5.44,0-5.4-.33-5.93-5.84-.83-8.6-1.4-17.35-3.47-25.69-5.23-21.05-15.1-39.82-29.47-56.25-17.62-20.15-39.38-33.84-64.61-42.24-13.4-4.46-27.26-6.5-41.35-7.14-.76-.03-1.54.03-2.29-.08C1.37,64.02-.04,62.98,0,60.27c.11-6.87.04-13.75.04-20.62,0-3.35,1.01-4.55,4.43-4.32,8.75.58,17.56.89,26.21,2.21,22.13,3.37,42.83,11.06,62.12,22.39,23.95,14.07,43.46,32.88,58.3,56.34,6.4,10.12,11.41,20.98,15.52,32.3,5.61,15.47,8.18,31.44,9.24,47.74.35,5.31.2,5.32-4.98,5.31-3.34,0-6.68,0-10.03,0Z"/>
    </g>
    <g>
      <text class="cls-6" transform="translate(332.46 214.75) scale(1.5 1)"><tspan x="0" y="0">RD NET</tspan></text>
      <text class="cls-7" transform="translate(348.6 276.42) scale(1.25 1)"><tspan x="0" y="0">NETWORK, FIBER, BR</tspan><tspan class="cls-5" x="445.81" y="0">O</tspan><tspan x="478.16" y="0">ADBAND</tspan></text>
    </g>
  </g>
</svg>