<?xml version="1.0" encoding="UTF-8"?>
<svg id="Layer_1" data-name="Layer 1" xmlns="http://www.w3.org/2000/svg" xmlns:xlink="http://www.w3.org/1999/xlink" viewBox="0 0 790.22 665.87">
  <defs>
    <style>
      .cls-1 {
        fill: url(#linear-gradient-2);
      }

      .cls-2 {
        fill: #231f20;
        font-size: 156.81px;
      }

      .cls-2, .cls-3, .cls-4 {
        isolation: isolate;
      }

      .cls-2, .cls-4 {
        font-family: HelveticaRounded-Bold, 'Helvetica Rounded';
        font-weight: 700;
      }

      .cls-5 {
        fill: url(#linear-gradient-4);
      }

      .cls-6 {
        fill: url(#linear-gradient-3);
      }

      .cls-7 {
        fill: url(#linear-gradient);
      }

      .cls-4 {
        fill: #f7941d;
        font-size: 44.46px;
      }
    </style>
    <linearGradient id="linear-gradient" x1="261.98" y1="1397.6" x2="361.94" y2="1397.6" gradientTransform="translate(0 1663.3) scale(1 -1)" gradientUnits="userSpaceOnUse">
      <stop offset="0" stop-color="#f15a29"/>
      <stop offset="1" stop-color="#fbb040"/>
    </linearGradient>
    <linearGradient id="linear-gradient-2" x1="304.81" y1="1552.31" x2="527.14" y2="1552.31" gradientTransform="translate(0 1663.3) scale(1 -1)" gradientUnits="userSpaceOnUse">
      <stop offset="0" stop-color="#f15a29"/>
      <stop offset="1" stop-color="#fbb040"/>
    </linearGradient>
    <linearGradient id="linear-gradient-3" x1="375.79" y1="1366.65" x2="521.44" y2="1366.65" gradientTransform="translate(0 1663.3) scale(1 -1)" gradientUnits="userSpaceOnUse">
      <stop offset="0" stop-color="#006838"/>
      <stop offset="1" stop-color="#8dc63f"/>
    </linearGradient>
    <linearGradient id="linear-gradient-4" x1="261.96" y1="1532.41" x2="428.1" y2="1532.41" gradientTransform="translate(0 1663.3) scale(1 -1)" gradientUnits="userSpaceOnUse">
      <stop offset="0" stop-color="#f15a29"/>
      <stop offset="1" stop-color="#fbb040"/>
    </linearGradient>
  </defs>
  <g id="Potrait">
    <g>
      <path class="cls-7" d="M262.01,302.3v-111.38c0-3.78,1.74-5.53,4.95-4.86,9.6,1.98,17.65,6.98,23.36,16.53,2.9,4.85,4.58,10.26,5.26,16.06.27,2.24,1.06,3.12,2.93,3.11,10.63-.03,21.27,0,31.9-.02,1.54,0,2.88-.18,2.62-2.79-1.13-11.57-3.34-22.74-8.32-33-6.01-12.38-14.25-22.22-24.66-29.46-10.17-7.08-21.26-10.78-33.12-11.29-3.61-.15-4.95-1.82-4.94-6.01v-21.52c0-3.9,1.15-5.48,4.56-5.14,6,.59,12.05,1.13,17.94,2.52,22.66,5.34,41.19,19.01,56.15,39.38,7.82,10.65,13.37,22.94,17.08,36.25,2.57,9.23,3.66,18.86,4.21,28.56.14,2.41-.89,3.53-2.87,3.54-2.61.02-5.23,0-7.84,0-3.52-.01-5.28,1.99-5.28,6v50.63c0,22.99.03,45.99,0,68.98-.03,18.94-5.35,35.56-16.68,49.15-6.11,7.32-13.35,12.82-21.73,16.43-11.85,5.11-24.07,5.07-36.37,4.91-1.71-.02-3.43.03-5.14-.01-2.71-.06-4.04-1.66-4.04-4.87v-111.7h.03Z"/>
      <path class="cls-1" d="M304.81.78c1.74-.23,3.47-.67,5.21-.67,32.8-.04,65.61-.26,98.41.07,21.59.22,42.71,3.96,62.75,14.08,20.05,10.13,35.73,26.01,45.96,48.66,5.9,13.06,9.15,27.23,9.73,42.04.32,8.3.4,16.65,0,24.94-.98,20.3-6.99,38.55-17.28,54.88-10.3,16.36-23.87,27.86-39.58,36.11-3.65,1.92-4.17,1.53-4.55-2.96-.92-10.69-1.59-21.42-2.9-32.04-.84-6.83-2.34-13.6-4.05-20.22-2.31-8.91-4.88-17.74-7.75-26.42-4.19-12.68-9.77-24.58-16.14-35.92-14.85-26.43-33.78-48.11-56.2-65.69-14.22-11.15-29.44-19.96-45.65-26.3-8.77-3.43-17.77-6.06-26.67-9.06-.42-.14-.81-.38-1.21-.57-.02-.3-.04-.6-.06-.91l-.02-.02Z"/>
      <path class="cls-6" d="M474.44,341.75c-14.42,0-28.84-.06-43.27.05-2.73.02-4.53-1.08-6.05-3.72-12.62-21.87-25.32-43.67-37.99-65.5-3.46-5.96-6.92-11.93-10.35-17.92-.42-.73-.66-1.6-.99-2.4.81-.29,1.63-.83,2.44-.83,13.52-.1,27.04-.12,40.56-.17,15.05-.05,30.11,0,45.16-.25,3.11-.05,5.01,1.27,6.7,4.11,8.95,15.05,18,30.02,27.02,45.01,7.62,12.66,15.26,25.29,22.84,37.98.52.87.63,2.08.93,3.13-.98.35-1.95,1.01-2.93,1.01-14.69.07-29.39.05-44.08.05v-.54h0Z"/>
      <path class="cls-5" d="M413.83,222.78h-9.47c-5.14,0-5.1-.36-5.6-6.46-.78-9.5-1.32-19.17-3.28-28.38-4.94-23.26-14.26-44.01-27.82-62.16-16.64-22.27-37.18-37.39-61-46.67-12.65-4.93-25.74-7.19-39.04-7.89-.72-.04-1.45.03-2.16-.09-2.2-.38-3.54-1.53-3.5-4.53.11-7.59.03-15.19.04-22.79,0-3.7.95-5.03,4.18-4.77,8.26.65,16.58.98,24.75,2.44,20.9,3.73,40.44,12.22,58.65,24.74,22.61,15.55,41.03,36.33,55.04,62.25,6.04,11.18,10.77,23.18,14.65,35.69,5.29,17.09,7.72,34.74,8.72,52.75.33,5.87.19,5.88-4.7,5.87h-9.47.01Z"/>
    </g>
    <g class="cls-3">
      <text class="cls-2" transform="translate(0 588.21) scale(1.28 1)"><tspan x="0" y="0">RD NET</tspan></text>
    </g>
    <g class="cls-3">
      <text class="cls-4" transform="translate(15.23 656.36) scale(1.07 1)"><tspan x="0" y="0">NETWORK, FIBER, BR</tspan></text>
      <text class="cls-4" transform="translate(542.32 656.36) scale(1.07 1)"><tspan x="0" y="0">O</tspan></text>
      <text class="cls-4" transform="translate(580.58 656.36) scale(1.07 1)"><tspan x="0" y="0">ADBAND</tspan></text>
    </g>
  </g>
</svg>